<svg fill="none" height="17" viewBox="0 0 13 17" width="13" xmlns="http://www.w3.org/2000/svg"><path d="m12.5745 5.6818c-.5209.31891-.9523.76475-1.254 1.29581-.3016.53106-.4636 1.12998-.4708 1.74069.0021.68735.2057 1.359.5857 1.9318.38.5727.9197 1.0214 1.5522 1.2905-.2494.8046-.6184 1.5671-1.0948 2.2618-.6816.9812-1.3943 1.9623-2.47867 1.9623-1.0844 0-1.36331-.63-2.613-.63-1.21871 0-1.6525.6507-2.64401.6507-.9915 0-1.68339-.9089-2.47869-2.0243-1.050536-1.5626-1.6278952-3.3951-1.662805-5.2776 0-3.0984 2.014005-4.7405 3.996905-4.7405 1.0535 0 1.9314.6919 2.5924.6919.63 0 1.6112-.7333 2.8092-.7333.61597-.01589 1.22637.11992 1.77747.39548.5512.27556 1.0261.68241 1.3829 1.18472zm-3.72838-2.8918c.5281-.62124.82705-1.40487.8469-2.22.0009-.107458-.00949-.214712-.03099-.32-.90715.088614-1.746.520975-2.34451 1.2084-.53319.59648-.84339 1.35919-.87789 2.1585.0004.09721.01078.19412.03099.2892.07152.01352.14412.02045.21691.0207.41807-.03327.82501-.1512 1.19609-.34662.37108-.19543.69855-.46427.9625-.79018z" fill="#fff"/></svg>