<svg fill="none" height="15" viewBox="0 0 13 15" width="13" xmlns="http://www.w3.org/2000/svg"><path d="m10.8548 3.02925h-1.02055c-.1094-.81101-.50575-1.55599-1.11721-2.099903-.61146-.543909-1.39755-.8507458-2.21579-.8648939-.81824.0141481-1.60433.3209849-2.21579.8648939-.61146.543913-1.00781 1.288893-1.11721 2.099903h-1.02c-.56121.00037-1.09934.22342-1.496253.62018-.396911.39677-.6201643.93481-.620747 1.49602v7.71555c.0005029.5611.223605 1.0991.620346 1.496.396744.3968.934714.62 1.495854.6207h8.70705c.5612-.0005 1.0993-.2237 1.4962-.6205.3969-.3969.62-.935.6206-1.4962v-7.71555c-.0006-.56112-.2238-1.09909-.6206-1.49584s-.9348-.61985-1.4959-.62036zm-4.35355-1.8652c.52741.01147 1.03512.20257 1.43918.54172.40407.33916.6803.80604.78302 1.32348h-4.4444c.10272-.51744.37895-.98432.78302-1.32348.40406-.33915.91177-.53025 1.43918-.54172zm5.37005 11.69695c-.0003.2695-.1075.528-.2981.7187-.1906.1906-.449.2979-.7185.2984h-8.70695c-.26956-.0005-.52794-.1078-.71849-.2985-.19055-.1906-.29772-.4491-.29801-.7186v-7.71555c.00032-.26952.10753-.52791.29811-.71849s.44897-.29779.71849-.29811h8.70695c.2695.00037.5279.1076.7184.29818.1906.19057.2977.44894.2981.71842z" fill="#fff"/></svg>